HIERARCHY
ROOT hip
{
  OFFSET 138.146 83.8119 6.21729
  CHANNELS 6 Xposition Yposition Zposition Zrotation Xrotation Yrotation
  JOINT abdomen
  {
    OFFSET 0 20.6881 -0.73152
    CHANNELS 3 Zrotation Xrotation Yrotation
    JOINT chest
    {
      OFFSET 0 11.7043 -0.48768
      CHANNELS 3 Zrotation Xrotation Yrotation
      JOINT neck
      {
        OFFSET 0 22.1894 -2.19456
        CHANNELS 3 Zrotation Xrotation Yrotation
        JOINT head
        {
          OFFSET -0.24384 7.07133 1.2192
          CHANNELS 3 Zrotation Xrotation Yrotation
          JOINT leftEye
          {
            OFFSET 4.14528 8.04674 8.04672
            CHANNELS 3 Zrotation Xrotation Yrotation
            End Site
            {
              OFFSET 1 0 0
            }
          }
          JOINT rightEye
          {
            OFFSET -3.6576 8.04674 8.04672
            CHANNELS 3 Zrotation Xrotation Yrotation
            End Site
            {
              OFFSET 1 0 0
            }
          }
        }
      }
      JOINT rCollar
      {
        OFFSET -2.68224 19.2634 -4.8768
        CHANNELS 3 Zrotation Xrotation Yrotation
        JOINT rShldr
        {
          OFFSET -8.77824 -1.95073 1.46304
          CHANNELS 3 Zrotation Xrotation Yrotation
          JOINT rForeArm
          {
            OFFSET -28.1742 -1.7115 0.48768
            CHANNELS 3 Zrotation Xrotation Yrotation
            JOINT rHand
            {
              OFFSET -22.5879 0.773209 7.07136
              CHANNELS 3 Zrotation Xrotation Yrotation
              JOINT rThumb1
              {
                OFFSET -1.2192 -0.487915 3.41376
                CHANNELS 3 Zrotation Xrotation Yrotation
                JOINT rThumb2
                {
                  OFFSET -3.37035 -0.52449 3.41376
                  CHANNELS 3 Zrotation Xrotation Yrotation
                  End Site
                  {
                    OFFSET -1.78271 -1.18214 1.43049
                  }
                }
              }
              JOINT rIndex1
              {
                OFFSET -7.75947 0.938293 5.60832
                CHANNELS 3 Zrotation Xrotation Yrotation
                JOINT rIndex2
                {
                  OFFSET -2.54057 -0.884171 1.56538
                  CHANNELS 3 Zrotation Xrotation Yrotation
                  End Site
                  {
                    OFFSET -1.62519 -0.234802 1.16502
                  }
                }
              }
              JOINT rMid1
              {
                OFFSET -8.24714 1.18213 3.41376
                CHANNELS 3 Zrotation Xrotation Yrotation
                JOINT rMid2
                {
                  OFFSET -3.10165 -0.590103 1.0647
                  CHANNELS 3 Zrotation Xrotation Yrotation
                  End Site
                  {
                    OFFSET -2.48547 -0.328903 0.83742
                  }
                }
              }
              JOINT rRing1
              {
                OFFSET -8.82822 0.546677 1.51678
                CHANNELS 3 Zrotation Xrotation Yrotation
                JOINT rRing2
                {
                  OFFSET -2.60934 -0.819778 -0.0198488
                  CHANNELS 3 Zrotation Xrotation Yrotation
                  End Site
                  {
                    OFFSET -2.33842 -0.294052 0.168128
                  }
                }
              }
              JOINT rPinky1
              {
                OFFSET -8.27202 -0.0477905 -0.4584
                CHANNELS 3 Zrotation Xrotation Yrotation
                JOINT rPinky2
                {
                  OFFSET -1.82734 -0.647385 -0.700984
                  CHANNELS 3 Zrotation Xrotation Yrotation
                  End Site
                  {
                    OFFSET -1.69225 -0.51767 -0.607171
                  }
                }
              }
            }
          }
        }
      }
      JOINT lCollar
      {
        OFFSET 2.68224 19.2634 -4.8768
        CHANNELS 3 Zrotation Xrotation Yrotation
        JOINT lShldr
        {
          OFFSET 8.77824 -1.95073 1.46304
          CHANNELS 3 Zrotation Xrotation Yrotation
          JOINT lForeArm
          {
            OFFSET 28.1742 -1.7115 0.48768
            CHANNELS 3 Zrotation Xrotation Yrotation
            JOINT lHand
            {
              OFFSET 22.5879 0.773209 7.07136
              CHANNELS 3 Zrotation Xrotation Yrotation
              JOINT lThumb1
              {
                OFFSET 1.2192 -0.487915 3.41376
                CHANNELS 3 Zrotation Xrotation Yrotation
                JOINT lThumb2
                {
                  OFFSET 3.37035 -0.52449 3.41376
                  CHANNELS 3 Zrotation Xrotation Yrotation
                  End Site
                  {
                    OFFSET 1.78271 -1.18214 1.43049
                  }
                }
              }
              JOINT lIndex1
              {
                OFFSET 7.75947 0.938293 5.60832
                CHANNELS 3 Zrotation Xrotation Yrotation
                JOINT lIndex2
                {
                  OFFSET 2.54057 -0.884171 1.56538
                  CHANNELS 3 Zrotation Xrotation Yrotation
                  End Site
                  {
                    OFFSET 1.62519 -0.234802 1.16502
                  }
                }
              }
              JOINT lMid1
              {
                OFFSET 8.24714 1.18213 3.41376
                CHANNELS 3 Zrotation Xrotation Yrotation
                JOINT lMid2
                {
                  OFFSET 3.10165 -0.590103 1.0647
                  CHANNELS 3 Zrotation Xrotation Yrotation
                  End Site
                  {
                    OFFSET 2.48547 -0.328903 0.83742
                  }
                }
              }
              JOINT lRing1
              {
                OFFSET 8.82822 0.546677 1.51678
                CHANNELS 3 Zrotation Xrotation Yrotation
                JOINT lRing2
                {
                  OFFSET 2.60934 -0.819778 -0.0198488
                  CHANNELS 3 Zrotation Xrotation Yrotation
                  End Site
                  {
                    OFFSET 2.33842 -0.294052 0.168128
                  }
                }
              }
              JOINT lPinky1
              {
                OFFSET 8.27202 -0.0477905 -0.4584
                CHANNELS 3 Zrotation Xrotation Yrotation
                JOINT lPinky2
                {
                  OFFSET 1.82734 -0.647385 -0.700984
                  CHANNELS 3 Zrotation Xrotation Yrotation
                  End Site
                  {
                    OFFSET 1.69225 -0.51767 -0.607171
                  }
                }
              }
            }
          }
        }
      }
    }
  }
  JOINT rButtock
  {
    OFFSET -8.77824 4.35084 1.2192
    CHANNELS 3 Zrotation Xrotation Yrotation
    JOINT rThigh
    {
      OFFSET 0 -1.70687 -2.19456
      CHANNELS 3 Zrotation Xrotation Yrotation
      JOINT rShin
      {
        OFFSET 0 -36.8199 0.73152
        CHANNELS 3 Zrotation Xrotation Yrotation
        JOINT rFoot
        {
          OFFSET 0.73152 -45.1104 -5.12064
          CHANNELS 3 Zrotation Xrotation Yrotation
          End Site
          {
            OFFSET -1.1221 -3.69964 12.103
          }
        }
      }
    }
  }
  JOINT lButtock
  {
    OFFSET 8.77824 4.35084 1.2192
    CHANNELS 3 Zrotation Xrotation Yrotation
    JOINT lThigh
    {
      OFFSET 0 -1.70687 -2.19456
      CHANNELS 3 Zrotation Xrotation Yrotation
      JOINT lShin
      {
        OFFSET 0 -36.8199 0.73152
        CHANNELS 3 Zrotation Xrotation Yrotation
        JOINT lFoot
        {
          OFFSET -0.73152 -45.1104 -5.12064
          CHANNELS 3 Zrotation Xrotation Yrotation
          End Site
          {
            OFFSET 1.1221 -3.69964 12.103
          }
        }
      }
    }
  }
}
MOTION
Frames:	9
Frame Time:	0.00833333
83.6922 82.0403 5.05574 11.8431 -11.5868 -177.119 5.73897 -0.833203 -3.42107 2.17507 -15.5298 -0.235147 0.0128279 2.45625 -1.1081 -7.88974 12.9792 3.0573 -0 0 0 -0 0 0 -1.94424e-013 4.25964e-014 4.43294e-014 84.0937 36.8767 -36.1416 -18.7524 -11.5182 35.7324 -0.0537492 -6.57263 -0.927912 -5.04438e-010 6.32771e-010 1.01363e-010 -8.76269e-010 1.09753e-009 1.73364e-010 -5.0444e-010 6.32774e-010 1.01351e-010 7.73091 5.47488 0.417314 -5.0444e-010 6.32776e-010 1.01364e-010 2.90554 0.965183 0.102902 -5.04436e-010 6.32774e-010 1.01363e-010 10.2786 0.731801 0.0259123 -5.04441e-010 6.32773e-010 1.01373e-010 2.22167 -0.733487 -0.20892 -1.94397e-013 4.26082e-014 4.41737e-014 -94.584 34.9181 29.0472 19.3443 -12.2208 -37.0898 0.179447 12.2262 -1.74328 -8.23597e-010 -1.0158e-009 -3.43559e-010 -1.43028e-009 -1.7548e-009 -5.87086e-010 -8.23607e-010 -1.0158e-009 -3.43541e-010 -7.73091 5.47488 -0.417314 -8.23596e-010 -1.0158e-009 -3.43559e-010 -2.90554 0.965183 -0.102902 -8.23607e-010 -1.0158e-009 -3.43553e-010 -10.2786 0.731801 -0.0259123 -8.23595e-010 -1.0158e-009 -3.43559e-010 -2.22167 -0.733487 0.20892 -2.03217e-016 0 -3.88251e-019 6.9643 -18.1445 23.3129 -0.111361 20.9114 0.57658 -4.29384 -18.7893 -13.7025 2.03217e-016 0 3.88251e-019 -15.2741 -18.124 -14.4665 -0.0173363 21.2372 -0.3595 -1.35269 -25.6286 -2.15578 
83.442 82.5816 5.07615 12.0125 -11.8817 -176.66 5.30052 -0.783121 -3.48957 2.55308 -15.6936 -0.194453 0.0160631 2.34352 -1.16057 -7.56137 12.7915 2.77557 -0 0 0 -0 0 0 -1.7246e-013 2.46474e-014 4.29872e-014 83.8283 36.9392 -36.6612 -19.0386 -11.8486 36.394 -0.0586768 -6.8957 -0.973881 -6.06067e-010 6.27568e-010 1.49696e-010 -1.05172e-009 1.08853e-009 2.56345e-010 -6.0607e-010 6.2757e-010 1.49683e-010 7.73091 5.47488 0.417314 -6.06069e-010 6.27573e-010 1.49699e-010 2.90554 0.965183 0.102902 -6.06066e-010 6.27571e-010 1.49698e-010 10.2786 0.731801 0.0259123 -6.06071e-010 6.2757e-010 1.49709e-010 2.22167 -0.733487 -0.20892 -1.72442e-013 2.46516e-014 4.28381e-014 -95.5514 34.6884 30.9185 20.1028 -13.1415 -38.9299 0.13935 10.5824 -1.50458 -1.07827e-009 -1.40272e-009 -6.26299e-010 -1.87378e-009 -2.42327e-009 -1.07333e-009 -1.07828e-009 -1.40272e-009 -6.2628e-010 -7.73091 5.47488 -0.417314 -1.07827e-009 -1.40273e-009 -6.26299e-010 -2.90554 0.965183 -0.102902 -1.07828e-009 -1.40272e-009 -6.26293e-010 -10.2786 0.731801 -0.0259123 -1.07827e-009 -1.40272e-009 -6.26299e-010 -2.22167 -0.733487 0.20892 -2.03217e-016 0 -3.88251e-019 6.25693 -17.3657 23.7334 -0.106059 18.7694 0.529461 -4.3266 -18.0422 -14.2021 2.03217e-016 0 3.88251e-019 -15.6642 -17.4858 -15.3012 -0.00189709 19.6231 -0.326307 -0.782906 -26.439 -0.720449 
83.3086 82.9429 5.13769 11.8879 -12.2321 -176.182 5.00008 -0.770494 -3.59203 3.17794 -15.835 -0.11671 -0.0627481 2.23653 -1.18294 -7.25794 12.6627 2.60358 -0 0 0 -0 0 0 -1.36609e-013 6.25561e-014 3.00231e-014 83.4561 37.1849 -37.2051 -19.3149 -12.173 37.0433 -0.0599352 -6.96389 -0.983617 2.48991e-010 2.55741e-010 -3.13447e-011 4.28203e-010 4.43272e-010 -5.50447e-011 2.48988e-010 2.55745e-010 -3.13577e-011 7.73091 5.47488 0.417314 2.48988e-010 2.55747e-010 -3.13403e-011 2.90554 0.965183 0.102902 2.48991e-010 2.55746e-010 -3.13423e-011 10.2786 0.731801 0.0259123 2.48987e-010 2.55746e-010 -3.13317e-011 2.22167 -0.733487 -0.20892 -1.36575e-013 6.25514e-014 2.98662e-014 -96.7986 34.5086 32.8967 20.8323 -14.1075 -40.6833 0.122063 9.742 -1.38352 -1.13357e-009 -1.53559e-009 -7.21177e-010 -1.96959e-009 -2.65089e-009 -1.23531e-009 -1.13358e-009 -1.53559e-009 -7.2116e-010 -7.73091 5.47488 -0.417314 -1.13357e-009 -1.53559e-009 -7.21176e-010 -2.90554 0.965183 -0.102902 -1.13358e-009 -1.53559e-009 -7.21171e-010 -10.2786 0.731801 -0.0259123 -1.13357e-009 -1.53559e-009 -7.21178e-010 -2.22167 -0.733487 0.20892 -2.03217e-016 0 -3.88251e-019 6.15728 -16.9218 24.4004 -0.100341 17.2468 0.493832 -4.43674 -17.537 -14.7804 2.03217e-016 0 3.88251e-019 -15.4342 -16.9281 -15.7473 0.00540801 17.941 -0.285001 -0.25961 -27.0726 0.553983 
83.2442 83.1484 5.20759 11.6153 -12.603 -175.662 4.71286 -0.732168 -3.71417 3.9995 -15.9858 -0.0102248 -0.196992 2.12848 -1.1807 -6.96921 12.5339 2.49868 -0 0 0 -0 0 0 -8.53258e-014 1.32759e-013 9.21553e-015 82.955 37.5342 -37.7625 -19.5734 -12.485 37.6522 -0.0598225 -6.95784 -0.982754 1.70433e-009 -3.60143e-010 -3.47487e-010 2.94687e-009 -6.25514e-010 -5.98758e-010 1.70432e-009 -3.60138e-010 -3.475e-010 7.73091 5.47488 0.417314 1.70432e-009 -3.60136e-010 -3.47481e-010 2.90554 0.965183 0.102902 1.70432e-009 -3.60137e-010 -3.47484e-010 10.2786 0.731801 0.0259123 1.70432e-009 -3.60135e-010 -3.47475e-010 2.22167 -0.733487 -0.20892 -8.52649e-014 1.32743e-013 9.0416e-015 -98.2734 34.3334 34.9981 21.5563 -15.1266 -42.5087 0.111078 9.23892 -1.31091 -1.10331e-009 -1.5676e-009 -7.36628e-010 -1.9159e-009 -2.70296e-009 -1.25991e-009 -1.10332e-009 -1.5676e-009 -7.36616e-010 -7.73091 5.47488 -0.417314 -1.10331e-009 -1.5676e-009 -7.36626e-010 -2.90554 0.965183 -0.102902 -1.10332e-009 -1.5676e-009 -7.36622e-010 -10.2786 0.731801 -0.0259123 -1.1033e-009 -1.5676e-009 -7.36631e-010 -2.22167 -0.733487 0.20892 -2.03217e-016 0 -3.88251e-019 6.42439 -16.687 25.225 -0.0931025 16.1226 0.465063 -4.59336 -17.167 -15.4136 2.03217e-016 0 3.88251e-019 -14.8227 -16.4484 -15.8904 0.0103645 16.2608 -0.239974 0.222364 -27.5724 1.71073 
83.2467 83.1994 5.24201 11.278 -13.0156 -175.136 4.46737 -0.6665 -3.81133 4.79696 -16.1216 0.0996171 -0.31515 1.99455 -1.16221 -6.6705 12.352 2.40435 -0 0 0 -0 0 0 -2.85182e-014 1.88469e-013 -1.49698e-014 82.4239 37.7542 -38.197 -19.8047 -12.7695 38.2038 -0.0592477 -6.92724 -0.978382 3.02462e-009 -9.57456e-010 -6.40199e-010 5.23212e-009 -1.66187e-009 -1.10202e-009 3.02462e-009 -9.57449e-010 -6.40212e-010 7.73091 5.47488 0.417314 3.02462e-009 -9.57448e-010 -6.40192e-010 2.90554 0.965183 0.102902 3.02462e-009 -9.57448e-010 -6.40195e-010 10.2786 0.731801 0.0259123 3.02462e-009 -9.57444e-010 -6.40188e-010 2.22167 -0.733487 -0.20892 -2.84326e-014 1.88443e-013 -1.51608e-014 -99.7233 34.1268 36.9923 22.1999 -16.0779 -44.2573 0.0987357 8.78137 -1.2445 -1.00577e-009 -1.48765e-009 -6.77349e-010 -1.74522e-009 -2.56204e-009 -1.15641e-009 -1.00578e-009 -1.48765e-009 -6.77342e-010 -7.73091 5.47488 -0.417314 -1.00577e-009 -1.48765e-009 -6.77346e-010 -2.90554 0.965183 -0.102902 -1.00578e-009 -1.48765e-009 -6.77345e-010 -10.2786 0.731801 -0.0259123 -1.00577e-009 -1.48765e-009 -6.77354e-010 -2.22167 -0.733487 0.20892 -2.03217e-016 0 -3.88251e-019 6.95225 -16.8255 25.9965 -0.0860351 15.5802 0.44964 -4.78647 -16.956 -16.052 2.03217e-016 0 3.88251e-019 -14.0753 -16.2136 -15.8147 0.014994 14.882 -0.202013 0.61628 -27.9304 2.6438 
83.375 83.127 5.26658 10.9595 -13.4918 -174.639 4.29192 -0.571835 -3.83885 5.34906 -16.2183 0.18731 -0.34572 1.80994 -1.13587 -6.33818 12.064 2.26431 -0 0 0 -0 0 0 2.39086e-014 1.82895e-013 -3.80673e-014 81.9516 37.6167 -38.3642 -20.0004 -13.0123 38.6809 -0.0591235 -6.92174 -0.977595 3.47456e-009 -1.27357e-009 -7.50948e-010 6.01179e-009 -2.20983e-009 -1.29207e-009 3.47456e-009 -1.27356e-009 -7.50961e-010 7.73091 5.47488 0.417314 3.47456e-009 -1.27356e-009 -7.50942e-010 2.90554 0.965183 0.102902 3.47456e-009 -1.27356e-009 -7.50945e-010 10.2786 0.731801 0.0259123 3.47456e-009 -1.27355e-009 -7.50938e-010 2.22167 -0.733487 -0.20892 2.40002e-014 1.82869e-013 -3.8266e-014 -100.889 33.8761 38.6508 22.7148 -16.8695 -45.7678 0.0806967 8.07748 -1.14287 -8.59271e-010 -1.28464e-009 -5.48038e-010 -1.49005e-009 -2.2107e-009 -9.34067e-010 -8.59275e-010 -1.28464e-009 -5.48035e-010 -7.73091 5.47488 -0.417314 -8.59272e-010 -1.28464e-009 -5.48035e-010 -2.90554 0.965183 -0.102902 -8.59277e-010 -1.28464e-009 -5.48035e-010 -10.2786 0.731801 -0.0259123 -8.59263e-010 -1.28464e-009 -5.48045e-010 -2.22167 -0.733487 0.20892 -2.03217e-016 0 -3.88251e-019 7.64049 -17.5028 26.51 -0.0810267 15.8027 0.454214 -5.00815 -16.9277 -16.6469 2.03217e-016 0 3.88251e-019 -13.4307 -16.3911 -15.6022 0.0195783 14.1038 -0.181383 0.874621 -28.1407 3.24667 
83.547 82.9599 5.34997 10.5741 -14.078 -174.201 4.31968 -0.505094 -3.76717 5.55174 -16.2222 0.24472 -0.249136 1.60511 -1.09982 -5.94049 11.5971 2.05443 -0 0 0 -0 0 0 8.5006e-014 6.64787e-014 -5.91113e-014 81.4999 36.9047 -38.1605 -20.1628 -13.2165 39.081 -0.059117 -6.9156 -0.976733 2.45452e-009 -1.1485e-009 -5.59104e-010 4.24898e-009 -1.99129e-009 -9.61205e-010 2.45452e-009 -1.1485e-009 -5.59117e-010 7.73091 5.47488 0.417314 2.45451e-009 -1.1485e-009 -5.59098e-010 2.90554 0.965183 0.102902 2.45452e-009 -1.1485e-009 -5.59102e-010 10.2786 0.731801 0.0259123 2.45451e-009 -1.14849e-009 -5.59095e-010 2.22167 -0.733487 -0.20892 8.50759e-014 6.64683e-014 -5.92999e-014 -101.756 33.6635 40.0006 23.1384 -17.5583 -47.0249 0.0568283 6.9659 -0.983573 -6.61289e-010 -8.8474e-010 -2.89197e-010 -1.14593e-009 -1.52293e-009 -4.91848e-010 -6.61292e-010 -8.84741e-010 -2.89195e-010 -7.73091 5.47488 -0.417314 -6.61289e-010 -8.84741e-010 -2.89196e-010 -2.90554 0.965183 -0.102902 -6.61295e-010 -8.84742e-010 -2.89195e-010 -10.2786 0.731801 -0.0259123 -6.61282e-010 -8.8474e-010 -2.89205e-010 -2.22167 -0.733487 0.20892 -2.03217e-016 0 -3.88251e-019 8.57204 -18.8494 26.7445 -0.0823973 16.9587 0.483464 -5.27419 -17.1413 -17.1855 2.03217e-016 0 3.88251e-019 -12.8042 -16.976 -15.3037 0.0252276 13.8658 -0.178152 0.985111 -28.2351 3.4932 
83.6852 82.6726 5.59543 10.1152 -14.7492 -173.797 4.49334 -0.448015 -3.626 5.5376 -16.1618 0.285777 -0.0700943 1.38091 -1.05099 -5.50191 10.999 1.8086 -0 0 0 -0 0 0 1.54826e-013 -1.23466e-013 -8.04084e-014 81.057 35.7906 -37.7067 -20.2981 -13.3904 39.4115 -0.0589362 -6.89534 -0.973865 4.91176e-010 -7.52316e-010 -1.75334e-010 8.54715e-010 -1.30159e-009 -2.99888e-010 4.91177e-010 -7.52311e-010 -1.75348e-010 7.73091 5.47488 0.417314 4.9117e-010 -7.52309e-010 -1.75331e-010 2.90554 0.965183 0.102902 4.91173e-010 -7.52309e-010 -1.75335e-010 10.2786 0.731801 0.0259123 4.9117e-010 -7.52308e-010 -1.75327e-010 2.22167 -0.733487 -0.20892 1.54856e-013 -1.2345e-013 -8.05761e-014 -102.445 33.487 41.1405 23.5062 -18.1961 -48.0972 0.034488 5.63002 -0.793367 -4.0453e-010 -3.17497e-010 8.1429e-011 -6.99894e-010 -5.4848e-010 1.40691e-010 -4.04533e-010 -3.17494e-010 8.14313e-011 -7.73091 5.47488 -0.417314 -4.0453e-010 -3.17495e-010 8.14276e-011 -2.90554 0.965183 -0.102902 -4.04537e-010 -3.17495e-010 8.14289e-011 -10.2786 0.731801 -0.0259123 -4.04525e-010 -3.17494e-010 8.14208e-011 -2.22167 -0.733487 0.20892 -2.03217e-016 0 -3.88251e-019 9.7665 -20.7531 26.824 -0.0902947 18.9105 0.533992 -5.59356 -17.5643 -17.6976 2.03217e-016 0 3.88251e-019 -12.1072 -17.8976 -14.8653 0.0301181 14.055 -0.187269 0.960588 -28.2112 3.43371 
83.5835 82.3354 5.97752 9.78418 -15.4193 -173.374 4.55463 -0.28612 -3.45961 5.44042 -16.137 0.318081 0.136626 1.06818 -0.995854 -5.08223 10.3969 1.55723 -0 0 0 -0 0 0 2.03964e-013 -3.03414e-013 -1.02401e-013 80.7405 34.6324 -37.179 -20.4041 -13.5286 39.67 -0.0595385 -6.92899 -0.978669 -1.46132e-009 -3.17404e-010 2.1194e-010 -2.52123e-009 -5.44992e-010 3.67411e-010 -1.46131e-009 -3.17401e-010 2.11927e-010 7.73091 5.47488 0.417314 -1.46132e-009 -3.17398e-010 2.11941e-010 2.90554 0.965183 0.102902 -1.46132e-009 -3.17399e-010 2.11938e-010 10.2786 0.731801 0.0259123 -1.46132e-009 -3.174e-010 2.11947e-010 2.22167 -0.733487 -0.20892 2.0395e-013 -3.03373e-013 -1.02551e-013 -102.892 33.2296 41.9493 23.789 -18.7087 -48.936 0.0196272 4.29506 -0.604475 -1.00123e-010 2.73137e-010 4.43279e-010 -1.71711e-010 4.66459e-010 7.58362e-010 -1.00126e-010 2.73141e-010 4.43282e-010 -7.73091 5.47488 -0.417314 -1.00122e-010 2.73141e-010 4.43275e-010 -2.90554 0.965183 -0.102902 -1.0013e-010 2.73141e-010 4.43277e-010 -10.2786 0.731801 -0.0259123 -1.0012e-010 2.73141e-010 4.4327e-010 -2.22167 -0.733487 0.20892 -2.03217e-016 0 -3.88251e-019 11.0139 -23.0238 26.759 -0.101365 21.3822 0.600961 -5.94546 -18.0836 -18.1971 2.03217e-016 0 3.88251e-019 -11.5567 -19.2269 -14.2105 0.0302193 14.8925 -0.211417 0.796221 -28.0108 3.07863 
